<?xml version="1.0" encoding="utf-8"?>
<svg viewBox="-410.7057 -377.7924 516.0248 1204.7451" xmlns="http://www.w3.org/2000/svg">
  <path style="stroke: rgb(207, 235, 0);" d="M -368.756 824.259 C -376.178 821.639 -376.787 813.733 -370.359 799.764 C -368.107 794.871 -362.288 792.334 -356.819 786.003 C -351.303 779.618 -345.258 771.283 -345.177 770.126 C -344.564 761.412 -350.438 739.349 -349.472 728.608 C -344.203 670.03 -335.633 578.476 -322.291 478.988 C -322.142 477.875 -329.117 476.859 -328.967 475.743 C -324.989 446.143 -329.939 397.325 -327.664 364.054 C -325.193 327.925 -321.162 217.163 -316.898 182.443 C -312.513 146.741 -313.713 124.909 -312.834 111.293 C -312.324 103.399 -308.961 96.896 -309.007 95.616 C -309.104 92.922 -304.482 79.2 -304.296 77.796 C -304.093 76.265 -301.72 50.194 -301.736 46.205 C -301.753 42.135 -332.858 61.599 -356.515 62.248 C -381.27 62.926 -396.662 44.079 -398.491 40.283 C -400.176 36.786 -415.337 32.439 -409.288 -3.538 C -408.018 -11.094 -400.725 -16.783 -399.032 -24.262 C -395.999 -37.66 -394.86 -60.232 -392.365 -76.276 C -390.187 -90.285 -386.116 -84.348 -385.641 -96.752 C -385.463 -101.413 -376.513 -140.496 -371.065 -152.321 C -368.96 -156.889 -288.829 -184.447 -272.88 -203.657 C -267.824 -209.747 -266.527 -211.451 -250.39 -217.615 C -250.063 -217.74 -230.655 -251.634 -265.94 -273.695 C -278.597 -281.608 -287.658 -301.653 -277.639 -316.034 C -268.152 -329.651 -242.8 -338.647 -232.222 -340.477 C -227.462 -341.3 -221.414 -360.417 -218.775 -369.124 C -212.331 -390.385 -127.594 -368.487 -121.836 -346.894 L -121.449 -324.436 C -40.005 -246.514 -112.526 -222.145 -137.533 -222.79 L -146.425 -199.712 L -111.168 -183.057 L -66.441 -171.611 C -67.055 -173.828 -46.911 -153.386 -45.352 -144.386 C -48.154 -143.452 -29.47 -64.794 -27.804 -65.349 C -27.69 -66.008 -25.323 -24.739 -28.585 -5.822 L -17.092 9.458 L 103.995 45.766 C 108.486 46.265 100.476 65.485 95.985 64.986 L 89.865 62.606 C 92.034 66.325 81.033 89.041 76.412 81.119 C 76.412 84.512 43.663 77.489 43.663 76.072 C 52.694 76.33 29.065 88.121 4.721 87.425 L -12.451 121.565 C -16.772 128.354 -50.451 113.944 -47.882 109.907 L -59.447 109.421 L -40.434 179.189 L -32.859 222.843 L 4.245 460.318 L -13.653 463.137 L -2.633 663.261 L -2.706 749.141 C -3.572 756.931 19.513 793.919 20.094 788.688 C 25.329 805.55 22.403 813.634 2.556 805.515 C -15.462 801.275 -56.52 813.211 -51.28 814.444 C -60.196 821.131 -70.958 788.124 -69.222 786.822 L -66.098 765.701 L -73.239 765.924 L -95.452 724.241 C -96.478 724.925 -100.279 670.087 -97.162 668.009 L -140.319 464.587 L -187.892 464.249 C -187.892 464.249 -206.67 487.237 -208.408 502.895 C -209.205 510.071 -203.478 516.81 -204.419 526.132 C -205.223 534.098 -224.603 549.276 -224.212 558.537 C -220.957 635.727 -247.5 739.668 -264.783 780.022 C -269.911 791.994 -263.06 802.253 -262.461 803.531 C -259.827 809.145 -296.881 814.083 -312.261 822.533 C -327.415 825.164 -356.336 830.008 -368.756 824.259 Z" transform="matrix(1, 0, 0, 1, 0, 1.1368683772161603e-13)"/>
</svg>