<?xml version="1.0" encoding="utf-8"?>
<svg viewBox="-729.2878 89.163 1126.2509 693.7912" xmlns="http://www.w3.org/2000/svg">
  <path style="stroke: rgb(186, 218, 85);" d="M -508.085 778.764 L -606.091 782.433 C -616.15 792.182 -663.063 663.016 -647.507 574.683 C -646.642 569.771 -690.91 564.117 -694.655 565.69 C -712.662 573.252 -752.866 534.216 -710.654 506.206 C -707.823 504.327 -727.228 497.059 -727.069 463.279 C -726.818 410.129 -726.774 302.751 -620.351 277.651 C -605.972 274.26 -613.164 240.067 -580.941 244.027 C -567.115 245.726 -551.1 230.276 -532.035 239.143 C -530.686 239.771 -530.883 227.124 -499.805 255.543 C -478.552 274.978 -491.096 293.374 -484.285 297.206 C -477.258 301.16 -474.877 306.157 -467.048 310.493 C -451.885 318.89 -467.364 282.807 -447.9 279.361 C -443.565 278.593 -443.777 265.611 -441.756 249.457 C -436.176 204.871 -428.437 133.781 -418.97 125.005 C -405.738 112.74 -288.719 91.697 -168.472 89.598 C -49.86 87.527 83.815 92.007 101.838 121.591 C 121.712 154.214 118.094 233.646 143.327 266.058 C 148.644 272.887 153.779 279.813 158.74 286.819 C 159.789 288.301 169.362 244.798 170.853 243.767 C 213.738 214.102 218.611 225.823 242.208 228.731 C 264.891 231.526 264.086 268.265 271.473 267.878 C 362.75 263.091 423.435 394.249 381.825 495.057 C 379.271 501.245 401.127 509.879 396.251 529.226 C 395.583 531.876 377.791 561.12 349.589 569.061 C 345.951 570.085 348.743 743.529 309.022 751.03 C 279.702 756.567 260.193 762.051 224.046 755.463 C 183.734 748.115 176.161 684.473 169.65 631.711 C 169.414 629.796 148.53 630.739 149.587 632.207 C 154.416 638.911 147.401 639.101 144.235 642.304 C 140.443 646.141 144.116 666.362 131.24 642.614 C 127.27 635.292 118.858 643.54 103.866 645.023 C 26.205 652.705 -114.364 619.656 -115.595 620.509 C -179.395 664.715 -155.554 642.046 -229.075 628.565 C -281.524 618.948 -297.452 648.309 -352.214 648.868 C -378.28 645.597 -365.924 670.579 -460.629 655.828 C -467.935 654.69 -454.918 645.375 -460.257 647.573 C -466.562 650.168 -487.336 639.634 -486.883 647.59 C -483.223 711.822 -505.092 780.317 -507.839 777.653" transform="matrix(1, 0, 0, 1, 0, -1.4210854715202004e-14)"/>
</svg>