<svg id="eefnTUGZFbK1" xmlns="http://www.w3.org/2000/svg" xmlns:xlink="http://www.w3.org/1999/xlink" viewBox="0 0 190 86" shape-rendering="geometricPrecision" text-rendering="geometricPrecision">
<style><![CDATA[
#eefnTUGZFbK2_to {animation: eefnTUGZFbK2_to__to 2000ms linear infinite normal forwards}@keyframes eefnTUGZFbK2_to__to { 0% {transform: translate(105.999496px,31.280499px)} 50% {transform: translate(105.999496px,28.579499px)} 100% {transform: translate(105.999496px,31.579499px)}} #eefnTUGZFbK31_to {animation: eefnTUGZFbK31_to__to 2000ms linear infinite normal forwards}@keyframes eefnTUGZFbK31_to__to { 0% {transform: translate(57.073986px,52.466008px)} 33% {transform: translate(57.073986px,52.466008px)} 100% {transform: translate(57.073986px,52.466008px)}} #eefnTUGZFbK35_tr {animation: eefnTUGZFbK35_tr__tr 2000ms linear infinite normal forwards}@keyframes eefnTUGZFbK35_tr__tr { 0% {transform: translate(162.677492px,52.744791px) rotate(0deg)} 100% {transform: translate(162.677492px,52.744791px) rotate(720deg)}} #eefnTUGZFbK37_tr {animation: eefnTUGZFbK37_tr__tr 2000ms linear infinite normal forwards}@keyframes eefnTUGZFbK37_tr__tr { 0% {transform: translate(57.073992px,52.488409px) rotate(0deg)} 100% {transform: translate(57.073992px,52.488409px) rotate(720deg)}}
]]></style>
<g id="eefnTUGZFbK2_to" transform="translate(105.999496,31.280499)"><g transform="translate(-166.138504,-75.470501)"><path d="M85.67,80.311c-2.058,0-2.532,3.164-2.532,5.538c0,2.373,0,3.957,0,5.854c0,1.899.712,4.827,2.532,6.646c3.798,0,16.141,0,16.141,0l3.64-.949h21.205l4.906,3.956h76.908l14.242-5.222l14.242,4.114c10.603,0,12.185-1.583,12.185-10.443c0-8.862,0-6.807-.791-9.495-.791-2.69-13.768-6.172-21.047-6.806-7.279-.633-20.255-1.107-23.104-1.424-6.171-4.906-14.875-10.761-18.673-12.185-3.798-1.425-22.155-2.58-29.592-2.69-9.014-.133-23.488,1.567-31.136,3.52-6.403,1.635-12.333,4.942-14.28,6.134-3.459,2.117-5.96,2.831-9.495,2.848-2.536.013-8.387,0-10.286,0s-2.057,0-2.69,1.108c-.634,1.108-2.217,7.438-2.375,9.496Z" fill="#fff" stroke="#000" stroke-width="1.5"/><path d="M131.562,101.357c.688-1.769,1.066-3.695,1.066-5.711c0-8.613-6.901-15.595-15.415-15.595s-15.415,6.981-15.415,15.595c0,.902.076,1.788.221,2.648l3.43-.895h21.205l4.908,3.958Z"/><path d="M237.55,100.245c.442-1.454.681-2.998.681-4.599c0-8.613-6.9-15.595-15.414-15.595s-15.415,6.981-15.415,15.595c0,2.016.378,3.942,1.065,5.71l14.244-5.222l14.839,4.111Z"/><path d="M242.967,87.616c.948,1.581,1.898,2.451,6.171,2.451" fill="none" stroke="#000" stroke-width="0.75" stroke-linecap="round" stroke-linejoin="round"/><path d="M234.714,75.949c6.731,2.062,10.849,4.491,11.693,5.336" fill="none" stroke="#000" stroke-width="0.75" stroke-linecap="round" stroke-linejoin="round"/><path d="M243.44,80.613c-1.503,0-3.561.159-3.561,1.859c0,1.701,0,1.979,0,2.492s1.424,2.651,2.533,2.651c1.107,0,1.304,0,1.581,0s.95-.053,1.307-.25c.356-.198.967-.617,1.355-1.005.171-.171.306-1.713.267-2.246-.04-.535.059-2.511-.682-3.028-.74-.516-2.123-.473-2.8-.473Z" fill="none" stroke="#000" stroke-width="0.75"/><path d="M245.301,87.26c0,.406-1.029.356-1.307.356s-.474,0-1.581,0c-1.109,0-2.533-2.138-2.533-2.651s0-.791,0-2.492c0-1.7,2.058-1.859,3.561-1.859c1.86,1.067,1.86,5.301,1.86,6.646Z" fill="none" stroke="#000" stroke-width="0.75"/><path d="M154.845,59.368c.77,2.69,3.556,11.552,3.982,13.136.427,1.581.892,3.798.818,5.696-.075,1.898,0,11.709,0,13.451c0,1.74-.708,4.904-1.499,6.329" fill="none" stroke="#000" stroke-width="0.75"/><path d="M195.329,72.661c1.746,1.267,3.486,3.165,4.119,6.014.634,2.848.791,10.919,0,14.083-.791,3.165-1.93,5.855-1.93,5.855-6.932-.158-60.546-1.082-64.143-1.267.559-5.379-1.276-12.342-6.767-15.508-5.492-3.164-4.131-8.703-3.625-15.667c6.836-3.163,21.437-6.804,30.831-6.804c9.396,0,15.441.348,17.768.507c2.325.157,5.938.375,9.597,2.816l14.15,9.971Z" fill="none" stroke="#000" stroke-width="0.75" stroke-linecap="round" stroke-linejoin="round"/><path d="M155.793,72.504l-3.059-11.045c-8.197,0-15.083,1.708-20.106,3.448s-.18,6.487,4.916,7.597h18.249Z" fill="none" stroke="#000" stroke-width="0.75" stroke-linecap="round" stroke-linejoin="round"/><path d="M181.853,64.748c-2.609-2.038-5.338-3.164-10.082-3.164-6.013,0-13.624-.25-13.624-.25l2.896,11.17h31.676l-10.866-7.756Z" fill="none" stroke="#000" stroke-width="0.75" stroke-linecap="round" stroke-linejoin="round"/><path d="M186.71,67.36c-1.404-.826-3.323-.317-3.323,1.029c0,1.344-.477,3.557,1.661,3.561c1.78.001,2.294-.576,2.929-1.505.633-.927.078-2.294-1.267-3.085Z" fill="#fff" stroke="#000" stroke-width="0.75"/><polyline points="184.034,59.489 181.566,60.739 198.235,72.504 204.195,72.081" fill="none" stroke="#000" stroke-width="0.6553" stroke-linecap="round" stroke-linejoin="round"/><path d="M92.418,69.69c.32,2.971-2.107,8.668-3.9,11.41" fill="none" stroke="#000" stroke-width="0.75" stroke-linecap="round" stroke-linejoin="round"/><path d="M100.755,81.839c-2.848.317-12.765-.104-15.085-1.528" fill="none" stroke="#000" stroke-width="0.75" stroke-linecap="round" stroke-linejoin="round"/><line x1="195.32899" y1="95.689003" x2="135.26401" y2="94.815002" fill="none" stroke="#000" stroke-width="0.75" stroke-linecap="round" stroke-linejoin="round"/><path d="M139.912,77.832h4.893c1.065,0,1.863.255,2.396.762.53.507.795,1.228.795,2.164c0,.961-.288,1.713-.866,2.254-.579.542-1.462.812-2.649.812h-1.611v3.536h-2.956v-9.528h-.002Zm2.956,4.063h.722c.567,0,.966-.099,1.195-.296.23-.197.345-.45.345-.757c0-.299-.1-.553-.299-.761s-.573-.312-1.125-.312h-.838v2.126Z"/><path d="M149.166,82.603c0-1.555.432-2.768,1.299-3.633.866-.866,2.073-1.3,3.62-1.3c1.585,0,2.807.426,3.664,1.277.858.852,1.287,2.044,1.287,3.577c0,1.113-.188,2.026-.562,2.739s-.916,1.267-1.624,1.663c-.709.397-1.591.595-2.648.595-1.074,0-1.964-.171-2.667-.514-.705-.342-1.275-.884-1.713-1.625-.438-.739-.656-1.666-.656-2.779Zm2.943.013c0,.961.178,1.652.535,2.072s.844.63,1.459.63c.633,0,1.121-.205,1.469-.617.347-.411.521-1.15.521-2.216c0-.897-.182-1.552-.544-1.966-.361-.413-.852-.62-1.472-.62-.592,0-1.069.21-1.429.631-.36.419-.539,1.115-.539,2.086Z"/><path d="M160.621,77.832h2.945v7.182h4.592v2.346h-7.537v-9.528Z"/><path d="M169.615,77.832h2.95v9.527h-2.95v-9.527Z"/><path d="M182.877,85.312v2.209h-3.648c-1.035,0-1.881-.15-2.537-.451-.657-.301-1.223-.831-1.7-1.587-.477-.759-.715-1.729-.715-2.909c0-1.577.421-2.788,1.258-3.634.84-.846,2.024-1.271,3.559-1.271h3.694v2.203h-3.624c-.665,0-1.178.27-1.533.806-.268.397-.403,1.021-.403,1.875c0,1.057.161,1.779.481,2.171.32.393.772.588,1.353.588h3.815Z"/><path d="M184.301,77.832h7.89v2.036h-4.938v1.513h4.581v1.942h-4.581v1.879h5.081v2.157h-8.032v-9.527h-.001Z"/><path d="M161.62,55.698c1.312,0,4.822-.104,4.822-1.415v-1.537c0-1.312-2.855-3.162-4.167-3.162h-1.448c-1.312,0-4.167,1.851-4.167,3.162v1.537c0,1.311,3.509,1.415,4.821,1.415h.139Z" fill="#fff" stroke="#000" stroke-width="0.75"/><path d="M103.962,76.306c.12.012.234.006.408-.013.294-.023.576-.126.792-.3.258-.203.432-.497.504-.869h-.012c-.198.216-.479.342-.852.342-.678,0-1.181-.485-1.181-1.205c0-.75.576-1.392,1.403-1.392.911,0,1.391.708,1.391,1.661c0,.834-.27,1.427-.678,1.817-.336.312-.804.497-1.331.533-.168.019-.33.019-.444.012v-.586Zm.39-2.087c0,.401.234.713.642.713.3,0,.516-.144.63-.323.024-.054.042-.114.042-.216c0-.528-.198-.978-.678-.978-.372,0-.636.33-.636.804Z"/><path d="M108.041,73.601h-.012l-.714.36-.126-.558.954-.468h.612v3.897h-.714v-3.231Z"/><path d="M111.257,73.601h-.012l-.714.36-.126-.558.954-.468h.612v3.897h-.714v-3.231Z"/></g></g><g><circle r="12.66" transform="translate(57.073992 52.466)" stroke="#fff"/></g><g id="eefnTUGZFbK31_to" transform="translate(57.073986,52.466008)"><circle r="7.701" transform="translate(0.000006,-0.000008)" fill="#fff"/></g><circle r="12.66" transform="translate(162.676992 52.466)" stroke="#fff"/><circle r="7.701" transform="translate(162.676992 52.466)" fill="#fff"/><path d="" fill="none" stroke="#3f5787" stroke-width="0.5"/><g id="eefnTUGZFbK35_tr" transform="translate(162.677492,52.744791) rotate(0)"><polygon points="0,-8.244802 7.140208,4.122401 -7.140208,4.122401 0,-8.244802" transform="scale(0.553236,0.553236) translate(0.000001,-0.04174)" stroke-width="0"/></g><path d="" fill="none" stroke="#3f5787" stroke-width="0.5"/><g id="eefnTUGZFbK37_tr" transform="translate(57.073992,52.488409) rotate(0)"><polygon points="0,-5.037839 4.362897,2.51892 -4.362897,2.51892 0,-5.037839" transform="translate(0,0)" fill="#0a0a0a" stroke-width="0"/></g></svg>
