<svg width="750" height="469" viewBox="0 0 750 469" fill="none" xmlns="http://www.w3.org/2000/svg">
<path d="M32.5 255.5C32.1667 250.833 34.2 235.5 45 211.5C55.8 187.5 55.5 152.5 54 138C53.1667 136.333 50.2 134 45 138C39.8 142 22.1667 124 14 114.5L8.99999 102.5C6.99999 101.333 2.89999 98 2.49999 94C1.99999 89 -1.21593e-05 89.5 2.49999 80C4.49999 72.4 11 61.5 14 57C17 54.1667 24.9 50.2 32.5 57C40.1 63.8 62.6667 70.8333 73 73.5C73.6667 72.6667 75.1 70.2 75.5 67C76 63 80 60.5 83.5 57C87.5 57 90.5 55 80 47C71.6 40.6 69.8333 36 70 34.5C70.8333 33.3333 73.6 31 78 31C82.4 31 88.5 21.3333 91 16.5C93.8333 12.5 102.5 5.4 114.5 9C126.5 12.6 132.167 21.8333 133.5 26C135 30.5 137.1 41 133.5 47C129.9 53 132 56.1667 133.5 57L140.5 61.5C141.333 62.1667 143.1 64.2 143.5 67C143.9 69.8 143.667 53.8333 143.5 45.5C143.5 43.8333 143.9 39.9 145.5 37.5C147.1 35.1 149.167 33.1667 150 32.5C151.333 31.5 154.7 32.7 157.5 45.5C160.3 58.3 161 67.5 161 70.5L185.5 65.5C182.667 55.5 178.1 33.6 182.5 26C186.9 18.4 194.667 35.8333 198 45.5L202 63C203 64.6667 204.9 65.5 204.5 55.5C204.1 45.5 205.333 31.6667 206 26C207.333 22.1667 212.1 17.4 220.5 29C231 43.5 246.5 54.5 241 89C236.6 116.6 218.5 112.167 210 106.5L202 96C200.333 103.167 193.4 117 179 115C164.6 113 165.667 112.833 168 113C169.333 127.667 169.8 164.5 161 194.5C152.2 224.5 149.333 262.333 149 277.5H123.5C122.5 282 119.4 294.1 115 306.5C139.167 322.5 188.6 356.2 193 363C197.4 369.8 205.167 368.5 208.5 367L216 374.5L208.5 392.5C205 392.167 198.4 394.1 200 404.5C201.6 414.9 186 429.833 178 436C175.167 436 170 434.5 172 428.5C174.5 421 184 418 175 392.5C158.667 383.167 123.8 361.8 115 351C112.833 363 107.3 389.5 102.5 399.5C97.7 409.5 100.5 413.667 102.5 414.5C103.667 421.5 103 434.1 91 428.5C79 422.9 76.6667 426.167 77 428.5C71 429.5 58 430.9 54 428.5C50 426.1 48.3333 421.833 48 420C47.1667 416.167 47.2 409.1 54 411.5C60.8 413.9 69.1667 404.5 72.5 399.5C74.6667 392.5 79.6 371 82 341V325.5C78.6667 323.667 73 317.3 77 306.5C81 295.7 78.6667 278 77 270.5C76.8333 269.333 72.9 266.9 58.5 266.5C44.1 266.1 52.5 259 58.5 255.5H32.5ZM309 457.5L284.5 441C283.167 439.333 279.6 436 276 436C271.5 436 262.5 433.5 263 428.5C263.5 423.5 265 415.5 272.5 411.5C278.5 408.3 287.333 380.5 291 367H260L258 106.5C259 97.5 265.7 75 284.5 57L287.5 26L294 29C291.833 18.8333 294 -0.899994 320 1.50001C346 3.90001 359.167 16.5 362.5 22.5C359.833 26.3333 353.3 33.7 348.5 32.5C343.7 31.3 349.5 35.3333 353 37.5C353.833 39.5 354.6 43.5 351 43.5C350.667 45.3333 349.2 49.1 346 49.5C347.167 54.6667 351.3 65.7 358.5 68.5C358.167 71.3333 358.5 78.4 362.5 84C366.5 89.6 373.5 103.333 376.5 109.5C379 119.5 379.7 136.9 362.5 126.5C366.167 134 372.9 152.3 370.5 165.5L378 164L389.5 183.5C382 188.333 372.1 204.4 392.5 230V239C396.833 240.167 405.4 244.8 405 254C417.5 257.5 448 273.5 470 309.5C492 345.5 493.833 348.833 492 346C496.167 352.5 505.7 366.6 510.5 371C515.3 375.4 525.167 372.167 529.5 370C544.833 366.667 582.9 363.2 612.5 376C616.167 377.333 625.3 379.6 632.5 378C639.7 376.4 644.833 385.333 646.5 390C647.333 391.667 653.1 394.3 669.5 391.5C671.5 390.167 676.3 388.8 679.5 394C683.5 400.5 731.5 399 733 394C734.5 393 737.5 390.4 737.5 388C737.5 385 749.5 386 748.5 390C747.7 393.2 748.167 403 748.5 407.5C748.667 408.167 744.9 410.3 728.5 413.5V418C719.333 425.667 701.9 441.4 705.5 443C700.333 447.833 687.6 458.6 678 463C668.4 467.4 654.667 462.5 649 459.5C637 456 607.7 451.5 586.5 461.5C565.3 471.5 509.667 468.333 484.5 465.5C480.167 465.167 470.2 460.1 465 442.5C464.667 441.667 463 440 459 440C455 440 449 439.333 446.5 439C445.833 438.5 445.4 437 449 435C452.6 433 452.5 416.5 452 408.5C429 370.667 382.6 295.1 381 295.5C379.4 295.9 384.667 317.333 387.5 328C389.667 335.5 392.7 351.9 387.5 357.5C382.3 363.1 372.667 364.167 368.5 364C366.667 368.167 363.2 378 364 384C363 385 361.3 392.9 362.5 416.5C364 422.5 372.7 434.4 395.5 434C401.667 435.833 410.5 441.6 396.5 450C390.667 451.5 376.9 453.6 368.5 450C360.1 446.4 355.667 449.5 354.5 451.5C346.5 452.5 330.2 451.6 329 440C327.8 428.4 330.5 425.167 332 425C333.333 424.667 335.2 419.7 332 402.5C328.8 385.3 332 375.667 334 373C327.833 377 313.5 390.3 305.5 411.5C305.167 415 308.3 426.3 323.5 443.5C338.7 460.7 320.167 460 309 457.5Z" stroke="black"/>
</svg>
