<svg width="243" height="430" viewBox="0 0 243 430" fill="none" xmlns="http://www.w3.org/2000/svg">
<path d="M32.5 248.5C32.1667 243.833 34.2 228.5 45 204.5C55.8 180.5 55.5 145.5 54 131C53.1667 129.333 50.2 127 45 131C39.8 135 22.1667 117 14 107.5L8.99999 95.5C6.99999 94.3333 2.89999 91 2.49999 87C1.99999 82 -1.21593e-05 82.5 2.49999 73C4.49999 65.4 11 54.5 14 50C17 47.1667 24.9 43.2 32.5 50C40.1 56.8 62.6667 63.8333 73 66.5C73.6667 65.6667 75.1 63.2 75.5 60C76 56 80 53.5 83.5 50C87.5 50 90.5 48 80 40C71.6 33.6 69.8333 29 70 27.5C70.8333 26.3333 73.6 24 78 24C82.4 24 88.5 14.3333 91 9.5C93.8333 5.5 102.5 -1.60001 114.5 1.99999C126.5 5.59999 132.167 14.8333 133.5 19C135 23.5 137.1 34 133.5 40C129.9 46 132 49.1667 133.5 50L140.5 54.5C141.333 55.1667 143.1 57.2 143.5 60C143.9 62.8 143.667 46.8333 143.5 38.5C143.5 36.8333 143.9 32.9 145.5 30.5C147.1 28.1 149.167 26.1667 150 25.5C151.333 24.5 154.7 25.7 157.5 38.5C160.3 51.3 161 60.5 161 63.5L185.5 58.5C182.667 48.5 178.1 26.6 182.5 19C186.9 11.4 194.667 28.8333 198 38.5L202 56C203 57.6667 204.9 58.5 204.5 48.5C204.1 38.5 205.333 24.6667 206 19C207.333 15.1667 212.1 10.4 220.5 22C231 36.5 246.5 47.5 241 82C236.6 109.6 218.5 105.167 210 99.5L202 89C200.333 96.1667 193.4 110 179 108C164.6 106 165.667 105.833 168 106C169.333 120.667 169.8 157.5 161 187.5C152.2 217.5 149.333 255.333 149 270.5H123.5C122.5 275 119.4 287.1 115 299.5C139.167 315.5 188.6 349.2 193 356C197.4 362.8 205.167 361.5 208.5 360L216 367.5L208.5 385.5C205 385.167 198.4 387.1 200 397.5C201.6 407.9 186 422.833 178 429C175.167 429 170 427.5 172 421.5C174.5 414 184 411 175 385.5C158.667 376.167 123.8 354.8 115 344C112.833 356 107.3 382.5 102.5 392.5C97.7 402.5 100.5 406.667 102.5 407.5C103.667 414.5 103 427.1 91 421.5C79 415.9 76.6667 419.167 77 421.5C71 422.5 58 423.9 54 421.5C50 419.1 48.3333 414.833 48 413C47.1667 409.167 47.2 402.1 54 404.5C60.8 406.9 69.1667 397.5 72.5 392.5C74.6667 385.5 79.6 364 82 334V318.5C78.6667 316.667 73 310.3 77 299.5C81 288.7 78.6667 271 77 263.5C76.8333 262.333 72.9 259.9 58.5 259.5C44.1 259.1 52.5 252 58.5 248.5H32.5Z" stroke="black"/>
</svg>
